# xmcd
#
# Track frame offsets:
#  150
#  1211
#  16349
#  31245
#  35525
#  51952
#  67205
#  82804
#  91006
#  110222
#  121567
#  135439
#  147367
#  161184
#  163933
#  176909
#  195734
#  217488
#  231877
#  237638
#  248686
#  281145
#  293626
#
# Disc length: 4086 seconds
#
# Revision: 0
# Processed by: cddbd v1.5.1PL2 Copyright (c) Steve Scherf et al.
# Submitted via: Collectorz.com_Music_Collector 6.11
#
DISCID=530ff417
DTITLE=Todd Snider - Canal Street Tavern, Dayton - 14/06/2002 [CD2)
DYEAR=2002
DGENRE=Alt Country
TTITLE0=Intro
TTITLE1=Crooked Piece Of Time
TTITLE2=Class Of '85
TTITLE3=Story: Broke
TTITLE4=Broke
TTITLE5=All My Life
TTITLE6=Horseshoe Lake
TTITLE7=Moondawg's Tavern
TTITLE8=Redneck Mother
TTITLE9=Just In Case
TTITLE10=Turn It Up
TTITLE11=Rocket Fuel
TTITLE12=Beer Run
TTITLE13=Audience: Shouting
TTITLE14=Living In The Future
TTITLE15=Easy Money > It's Only Rock 'n' Roll
TTITLE16=Doublewide Blues
TTITLE17=Better Than Ever Blues, Part 2
TTITLE18=Audience
TTITLE19=Late Last Night
TTITLE20=Story: Devil's Backbone Tavern
TTITLE21=Ballad Of The Devil's Backbone Tavern
TTITLE22=Story:: Ballad Of The Devil's Backbone Tavern (Outro)
EXTD=
EXTT0=
EXTT1=
EXTT2=
EXTT3=
EXTT4=
EXTT5=
EXTT6=
EXTT7=
EXTT8=
EXTT9=
EXTT10=
EXTT11=
EXTT12=
EXTT13=
EXTT14=
EXTT15=
EXTT16=
EXTT17=
EXTT18=
EXTT19=
EXTT20=
EXTT21=
EXTT22=
PLAYORDER=
